<svg width="27" height="24" viewBox="0 0 27 24" fill="none" xmlns="http://www.w3.org/2000/svg">
<path fill-rule="evenodd" clip-rule="evenodd" d="M14.2038 18.5439C15.2848 18.5439 16.1612 19.5742 16.1612 20.8451C16.1612 22.116 15.2848 23.1462 14.2038 23.1462H2.45963C1.37861 23.1462 0.502264 22.116 0.502264 20.8451C0.502264 19.5742 1.37861 18.5439 2.45963 18.5439H14.2038ZM24.6431 9.33933C25.7241 9.33933 26.6005 10.3696 26.6005 11.6405C26.6005 12.9114 25.7241 13.9416 24.6431 13.9416H2.45963C1.37861 13.9416 0.502264 12.9114 0.502264 11.6405C0.502264 10.3696 1.37861 9.33933 2.45963 9.33933H24.6431ZM19.4234 0.13472C20.5045 0.13472 21.3808 1.16498 21.3808 2.43587C21.3808 3.70676 20.5045 4.73703 19.4234 4.73703H2.45963C1.37861 4.73703 0.502264 3.70676 0.502264 2.43587C0.502264 1.16498 1.37861 0.13472 2.45963 0.13472H19.4234Z" fill="#333333"/>
</svg>
