<svg width="27" height="31" viewBox="0 0 27 31" fill="none" xmlns="http://www.w3.org/2000/svg">
<path fill-rule="evenodd" clip-rule="evenodd" d="M22.4603 22.0555L26.1758 26.254C27.0552 27.2477 27.0552 28.8589 26.1758 29.8527C25.2963 30.8464 23.8705 30.8464 22.9911 29.8527L19.2756 25.6542C18.9824 25.3229 18.9824 24.7859 19.2756 24.4546L21.3987 22.0555C21.6918 21.7242 22.1671 21.7242 22.4603 22.0555ZM11.9968 0.682999C18.2153 0.682999 23.2564 6.37944 23.2564 13.4064C23.2564 20.4333 18.2153 26.1297 11.9968 26.1297C5.77827 26.1297 0.737152 20.4333 0.737152 13.4064C0.737152 6.37944 5.77827 0.682999 11.9968 0.682999ZM11.9968 4.0759C7.43654 4.0759 3.73972 8.25329 3.73972 13.4064C3.73972 18.5594 7.43654 22.7368 11.9968 22.7368C16.5571 22.7368 20.2539 18.5594 20.2539 13.4064C20.2539 8.25329 16.5571 4.0759 11.9968 4.0759ZM14.7288 5.5039C16.8741 6.45147 18.5275 8.47359 19.189 10.9715C19.4267 11.8691 18.9754 12.8145 18.1811 13.0831C17.4229 13.3395 16.6261 12.8866 16.3485 12.0642L16.3124 11.9442C15.9163 10.4484 14.9217 9.23202 13.6357 8.66396C12.8634 8.32286 12.4821 7.33894 12.784 6.46631C13.0858 5.59369 13.9565 5.1628 14.7288 5.5039Z" fill="#333333"/>
</svg>
